<?xml version="1.0" encoding="UTF-8"?>
<svg xmlns="http://www.w3.org/2000/svg" xmlns:xlink="http://www.w3.org/1999/xlink" width="267.35pt" height="63.83pt" viewBox="0 0 267.35 63.83" version="1.1">
<defs>
<clipPath id="clip1">
  <path d="M 222 1 L 267.351563 1 L 267.351563 48 L 222 48 Z M 222 1 "/>
</clipPath>
<clipPath id="clip2">
  <path d="M 0 53 L 14 53 L 14 63.828125 L 0 63.828125 Z M 0 53 "/>
</clipPath>
<clipPath id="clip3">
  <path d="M 18 53 L 31 53 L 31 63.828125 L 18 63.828125 Z M 18 53 "/>
</clipPath>
<clipPath id="clip4">
  <path d="M 35 53 L 49 53 L 49 63.828125 L 35 63.828125 Z M 35 53 "/>
</clipPath>
<clipPath id="clip5">
  <path d="M 53 53 L 56 53 L 56 63.828125 L 53 63.828125 Z M 53 53 "/>
</clipPath>
<clipPath id="clip6">
  <path d="M 59 53 L 72 53 L 72 63.828125 L 59 63.828125 Z M 59 53 "/>
</clipPath>
<clipPath id="clip7">
  <path d="M 76 53 L 89 53 L 89 63.828125 L 76 63.828125 Z M 76 53 "/>
</clipPath>
<clipPath id="clip8">
  <path d="M 93 53 L 107 53 L 107 63.828125 L 93 63.828125 Z M 93 53 "/>
</clipPath>
<clipPath id="clip9">
  <path d="M 110 53 L 124 53 L 124 63.828125 L 110 63.828125 Z M 110 53 "/>
</clipPath>
<clipPath id="clip10">
  <path d="M 128 53 L 141 53 L 141 63.828125 L 128 63.828125 Z M 128 53 "/>
</clipPath>
<clipPath id="clip11">
  <path d="M 180 53 L 200 53 L 200 63.828125 L 180 63.828125 Z M 180 53 "/>
</clipPath>
<clipPath id="clip12">
  <path d="M 243 53 L 263 53 L 263 63.828125 L 243 63.828125 Z M 243 53 "/>
</clipPath>
<clipPath id="clip13">
  <path d="M 145 53 L 159 53 L 159 63.828125 L 145 63.828125 Z M 145 53 "/>
</clipPath>
<clipPath id="clip14">
  <path d="M 163 53 L 176 53 L 176 63.828125 L 163 63.828125 Z M 163 53 "/>
</clipPath>
<clipPath id="clip15">
  <path d="M 203 62 L 206 62 L 206 63.828125 L 203 63.828125 Z M 203 62 "/>
</clipPath>
<clipPath id="clip16">
  <path d="M 209 53 L 222 53 L 222 63.828125 L 209 63.828125 Z M 209 53 "/>
</clipPath>
<clipPath id="clip17">
  <path d="M 226 53 L 240 53 L 240 63.828125 L 226 63.828125 Z M 226 53 "/>
</clipPath>
</defs>
<g id="surface1">
<path style=" stroke:none;fill-rule:nonzero;fill:rgb(13.299561%,12.199402%,12.199402%);fill-opacity:1;" d="M 31.601563 8.90625 L 36.253906 -0.00390625 L 30.140625 -0.00390625 C 30.140625 -0.00390625 28.167969 3.777344 25.488281 8.90625 L 15.210938 8.90625 L 12.363281 15.898438 L 21.824219 15.898438 C 17.0625 24.984375 11.847656 34.894531 10.90625 36.527344 C 9.097656 39.652344 7.015625 39.550781 6.390625 39.550781 L 2.984375 39.550781 L 0 47.015625 L 6.25 47.015625 C 12.5 47.015625 16.945313 37.640625 17.710938 36.109375 C 18.472656 34.582031 27.941406 15.898438 27.941406 15.898438 L 43.0625 15.898438 C 43.0625 15.898438 38.058594 32.011719 36.199219 36.457031 C 34.339844 40.902344 30.90625 39.550781 30.210938 39.550781 L 24.65625 39.550781 L 21.949219 47.015625 L 32.363281 47.015625 C 37.503906 47.015625 39.796875 42.015625 40.214844 41.320313 C 40.628906 40.625 51.996094 8.90625 51.996094 8.90625 "/>
<path style=" stroke:none;fill-rule:nonzero;fill:rgb(13.299561%,12.199402%,12.199402%);fill-opacity:1;" d="M 55.816406 32.292969 L 63.144531 11.316406 L 59.035156 11.316406 L 51.707031 32.292969 Z M 55.816406 32.292969 "/>
<path style=" stroke:none;fill-rule:nonzero;fill:rgb(13.299561%,12.199402%,12.199402%);fill-opacity:1;" d="M 79.871094 11.316406 C 79.871094 11.316406 70.667969 37.570313 70.390625 38.265625 C 70.113281 38.957031 69.660156 41.113281 65.910156 41.113281 L 54.484375 41.113281 L 52.226563 47.015625 L 64.765625 47.015625 C 65.945313 47.015625 70.875 47.429688 72.785156 42.742188 C 74.695313 38.054688 83.980469 11.316406 83.980469 11.316406 "/>
<path style=" stroke:none;fill-rule:nonzero;fill:rgb(13.299561%,12.199402%,12.199402%);fill-opacity:1;" d="M 113.867188 17.984375 C 113.867188 17.984375 112.773438 19.496094 110.914063 21.351563 C 109.058594 23.210938 106.261719 22.949219 106.160156 22.949219 L 93.75 22.949219 L 97.8125 11.316406 L 93.703125 11.316406 C 93.703125 11.316406 84.039063 38.96875 83.761719 39.65625 C 83.480469 40.347656 81.050781 47.023438 88.101563 47.023438 L 108.484375 47.023438 L 110.914063 41.113281 L 90.21875 41.113281 C 89.558594 41.113281 87.683594 40.9375 88.832031 37.429688 C 89.976563 33.921875 92.234375 27.289063 92.234375 27.289063 L 106.921875 27.289063 C 110.949219 27.289063 112.582031 25.207031 113.277344 24.476563 C 113.972656 23.75 118.3125 17.984375 118.3125 17.984375 "/>
<path style=" stroke:none;fill-rule:nonzero;fill:rgb(13.299561%,12.199402%,12.199402%);fill-opacity:1;" d="M 114.734375 15.242188 L 116.402344 15.242188 L 116.402344 11.316406 L 114.734375 11.316406 Z M 114.734375 15.242188 "/>
<path style=" stroke:none;fill-rule:nonzero;fill:rgb(13.299561%,12.199402%,12.199402%);fill-opacity:1;" d="M 118.796875 15.242188 L 120.464844 15.242188 L 120.464844 11.316406 L 118.796875 11.316406 Z M 118.796875 15.242188 "/>
<path style=" stroke:none;fill-rule:nonzero;fill:rgb(13.299561%,12.199402%,12.199402%);fill-opacity:1;" d="M 129.460938 13.277344 L 127.757813 17.984375 L 151.40625 17.984375 C 151.40625 17.984375 148.835938 26.804688 148.59375 27.289063 C 148.351563 27.777344 147.96875 29.199219 145.78125 29.199219 L 137.390625 29.199219 C 138.976563 24.742188 140.328125 20.933594 140.328125 20.933594 L 136.214844 20.933594 L 129.597656 39.550781 C 129.597656 39.550781 129.007813 41.113281 126.613281 41.113281 L 120.257813 41.113281 L 117.859375 47.015625 L 125.363281 47.015625 C 126.367188 47.015625 131.195313 46.53125 133.140625 41.113281 C 133.800781 39.269531 134.84375 36.351563 135.929688 33.296875 L 146.058594 33.296875 C 146.058594 33.296875 150.226563 33.921875 151.859375 29.199219 C 153.492188 24.476563 157.449219 13.277344 157.449219 13.277344 "/>
<path style=" stroke:none;fill-rule:nonzero;fill:rgb(13.299561%,12.199402%,12.199402%);fill-opacity:1;" d="M 163.910156 13.277344 C 163.910156 13.277344 165.503906 20.171875 165.644531 20.691406 C 165.785156 21.214844 166.757813 24.894531 169.292969 24.894531 L 173.007813 24.894531 L 175.402344 20.101563 C 175.402344 20.101563 172.9375 20.136719 172.730469 20.136719 C 172.519531 20.136719 170.785156 19.929688 170.089844 17.949219 C 169.394531 15.96875 169.222656 13.277344 169.222656 13.277344 "/>
<path style=" stroke:none;fill-rule:nonzero;fill:rgb(13.299561%,12.199402%,12.199402%);fill-opacity:1;" d="M 154.429688 41.113281 L 151.964844 47.015625 L 166.859375 47.015625 C 168.25 47.015625 173.074219 46.945313 176.617188 40.589844 C 180.160156 34.234375 184.363281 26.351563 184.953125 25.171875 C 185.542969 23.992188 186.480469 21.941406 189.1875 21.941406 L 191.203125 17.707031 C 191.203125 17.707031 185.925781 16.074219 182.554688 22.046875 C 179.1875 28.019531 172.867188 39.550781 172.867188 39.550781 C 172.867188 39.550781 171.929688 41.113281 169.65625 41.113281 "/>
<path style=" stroke:none;fill-rule:nonzero;fill:rgb(13.299561%,12.199402%,12.199402%);fill-opacity:1;" d="M 197.03125 20.125 L 218.675781 20.125 C 216.75 25.808594 213.683594 34.882813 212.148438 39.550781 C 212.148438 39.550781 211.644531 41.113281 208.867188 41.113281 C 206.089844 41.113281 189.535156 41.113281 189.535156 41.113281 L 187.429688 47.015625 L 208.542969 47.015625 C 208.542969 47.015625 214.054688 46.832031 216.230469 40.164063 C 218.40625 33.496094 224.65625 15.113281 224.65625 15.113281 L 198.820313 15.113281 L 197.03125 20.125 "/>
<g clip-path="url(#clip1)" clip-rule="nonzero">
<path style=" stroke:none;fill-rule:nonzero;fill:rgb(13.299561%,12.199402%,12.199402%);fill-opacity:1;" d="M 222.15625 47.015625 L 224.101563 41.113281 L 253.410156 1.40625 L 260.585938 1.40625 L 232.019531 39.550781 L 252.253906 39.550781 C 253.085938 39.550781 255.402344 40.253906 257.066406 36.414063 C 258.734375 32.570313 261.050781 25.484375 261.050781 25.484375 L 267.347656 25.484375 C 267.347656 25.484375 262.484375 39.929688 262.023438 40.8125 C 261.558594 41.691406 259.152344 47.015625 253.085938 47.015625 "/>
</g>
<g clip-path="url(#clip2)" clip-rule="nonzero">
<path style=" stroke:none;fill-rule:nonzero;fill:rgb(13.299561%,12.199402%,12.199402%);fill-opacity:1;" d="M 2.921875 63.824219 C 2.34375 63.824219 1.84375 63.679688 1.425781 63.390625 C 1.023438 63.09375 0.820313 62.734375 0.820313 62.320313 L 0.820313 55.320313 C 0.820313 54.898438 1.023438 54.542969 1.425781 54.257813 C 1.835938 53.964844 2.335938 53.816406 2.921875 53.816406 L 13.070313 53.816406 L 13.070313 55.320313 L 3.28125 55.320313 C 3.042969 55.320313 2.921875 55.402344 2.921875 55.574219 L 2.921875 62.066406 C 2.921875 62.234375 3.042969 62.320313 3.28125 62.320313 L 13.070313 62.320313 L 13.070313 63.824219 "/>
</g>
<g clip-path="url(#clip3)" clip-rule="nonzero">
<path style=" stroke:none;fill-rule:nonzero;fill:rgb(13.299561%,12.199402%,12.199402%);fill-opacity:1;" d="M 28.46875 55.574219 C 28.46875 55.402344 28.355469 55.320313 28.128906 55.320313 L 20.785156 55.320313 C 20.546875 55.320313 20.425781 55.402344 20.425781 55.574219 L 20.425781 58.828125 L 28.46875 58.828125 Z M 28.46875 63.824219 L 28.46875 60.328125 L 20.425781 60.328125 L 20.425781 63.824219 L 18.324219 63.824219 L 18.324219 55.320313 C 18.324219 54.898438 18.523438 54.546875 18.929688 54.257813 C 19.339844 53.964844 19.835938 53.816406 20.425781 53.816406 L 28.46875 53.816406 C 29.058594 53.816406 29.554688 53.964844 29.957031 54.257813 C 30.367188 54.546875 30.574219 54.898438 30.574219 55.320313 L 30.574219 63.824219 "/>
</g>
<g clip-path="url(#clip4)" clip-rule="nonzero">
<path style=" stroke:none;fill-rule:nonzero;fill:rgb(13.299561%,12.199402%,12.199402%);fill-opacity:1;" d="M 45.972656 55.574219 C 45.972656 55.402344 45.859375 55.320313 45.632813 55.320313 L 37.925781 55.320313 L 37.925781 58.082031 L 45.632813 58.082031 C 45.859375 58.082031 45.972656 57.996094 45.972656 57.824219 Z M 45.449219 63.824219 L 39.21875 59.574219 L 37.925781 59.574219 L 37.925781 63.824219 L 35.824219 63.824219 L 35.824219 53.816406 L 45.972656 53.816406 C 46.558594 53.816406 47.054688 53.964844 47.460938 54.257813 C 47.867188 54.546875 48.074219 54.898438 48.074219 55.320313 L 48.074219 58.082031 C 48.074219 58.480469 47.867188 58.832031 47.449219 59.128906 C 47.039063 59.425781 46.546875 59.574219 45.972656 59.574219 L 42.109375 59.574219 L 48.074219 63.824219 "/>
</g>
<g clip-path="url(#clip5)" clip-rule="nonzero">
<path style=" stroke:none;fill-rule:nonzero;fill:rgb(13.299561%,12.199402%,12.199402%);fill-opacity:1;" d="M 53.328125 63.824219 L 55.429688 63.824219 L 55.429688 53.816406 L 53.328125 53.816406 Z M 53.328125 63.824219 "/>
</g>
<g clip-path="url(#clip6)" clip-rule="nonzero">
<path style=" stroke:none;fill-rule:nonzero;fill:rgb(13.299561%,12.199402%,12.199402%);fill-opacity:1;" d="M 69.578125 59.816406 C 69.578125 59.65625 69.46875 59.574219 69.242188 59.574219 L 61.535156 59.574219 L 61.535156 62.320313 L 69.242188 62.320313 C 69.46875 62.320313 69.578125 62.234375 69.578125 62.066406 Z M 69.578125 55.574219 C 69.578125 55.402344 69.46875 55.320313 69.242188 55.320313 L 61.535156 55.320313 L 61.535156 58.082031 L 69.242188 58.082031 C 69.46875 58.082031 69.578125 57.996094 69.578125 57.824219 Z M 71.066406 63.390625 C 70.664063 63.679688 70.167969 63.824219 69.578125 63.824219 L 59.433594 63.824219 L 59.433594 53.816406 L 69.578125 53.816406 C 70.167969 53.816406 70.664063 53.964844 71.066406 54.257813 C 71.476563 54.546875 71.683594 54.898438 71.683594 55.320313 L 71.683594 57.941406 C 71.683594 58.195313 71.542969 58.40625 71.261719 58.578125 C 70.988281 58.746094 70.667969 58.828125 70.296875 58.828125 C 70.660156 58.828125 70.980469 58.90625 71.261719 59.070313 C 71.542969 59.230469 71.683594 59.441406 71.683594 59.699219 L 71.683594 62.320313 C 71.683594 62.742188 71.476563 63.097656 71.066406 63.390625 "/>
</g>
<g clip-path="url(#clip7)" clip-rule="nonzero">
<path style=" stroke:none;fill-rule:nonzero;fill:rgb(13.299561%,12.199402%,12.199402%);fill-opacity:1;" d="M 86.800781 59.816406 C 86.800781 59.65625 86.6875 59.574219 86.460938 59.574219 L 78.753906 59.574219 L 78.753906 62.320313 L 86.460938 62.320313 C 86.6875 62.320313 86.800781 62.234375 86.800781 62.066406 Z M 86.800781 55.574219 C 86.800781 55.402344 86.6875 55.320313 86.460938 55.320313 L 78.753906 55.320313 L 78.753906 58.082031 L 86.460938 58.082031 C 86.6875 58.082031 86.800781 57.996094 86.800781 57.824219 Z M 88.285156 63.390625 C 87.882813 63.679688 87.386719 63.824219 86.800781 63.824219 L 76.652344 63.824219 L 76.652344 53.816406 L 86.800781 53.816406 C 87.386719 53.816406 87.882813 53.964844 88.285156 54.257813 C 88.699219 54.546875 88.902344 54.898438 88.902344 55.320313 L 88.902344 57.941406 C 88.902344 58.195313 88.761719 58.40625 88.480469 58.578125 C 88.207031 58.746094 87.886719 58.828125 87.515625 58.828125 C 87.878906 58.828125 88.203125 58.90625 88.480469 59.070313 C 88.761719 59.230469 88.902344 59.441406 88.902344 59.699219 L 88.902344 62.320313 C 88.902344 62.742188 88.699219 63.097656 88.285156 63.390625 "/>
</g>
<g clip-path="url(#clip8)" clip-rule="nonzero">
<path style=" stroke:none;fill-rule:nonzero;fill:rgb(13.299561%,12.199402%,12.199402%);fill-opacity:1;" d="M 95.914063 63.824219 C 95.335938 63.824219 94.835938 63.679688 94.417969 63.390625 C 94.015625 63.09375 93.8125 62.734375 93.8125 62.320313 L 93.8125 55.320313 C 93.8125 54.898438 94.015625 54.542969 94.417969 54.257813 C 94.828125 53.964844 95.328125 53.816406 95.914063 53.816406 L 106.0625 53.816406 L 106.0625 55.320313 L 96.273438 55.320313 C 96.035156 55.320313 95.914063 55.402344 95.914063 55.574219 L 95.914063 58.078125 L 104.320313 58.078125 L 104.320313 59.574219 L 95.914063 59.574219 L 95.914063 62.066406 C 95.914063 62.234375 96.035156 62.320313 96.273438 62.320313 L 106.0625 62.320313 L 106.0625 63.824219 "/>
</g>
<g clip-path="url(#clip9)" clip-rule="nonzero">
<path style=" stroke:none;fill-rule:nonzero;fill:rgb(13.299561%,12.199402%,12.199402%);fill-opacity:1;" d="M 121.0625 55.574219 C 121.0625 55.402344 120.949219 55.320313 120.722656 55.320313 L 113.378906 55.320313 C 113.140625 55.320313 113.019531 55.402344 113.019531 55.574219 L 113.019531 58.828125 L 121.0625 58.828125 Z M 121.0625 63.824219 L 121.0625 60.328125 L 113.019531 60.328125 L 113.019531 63.824219 L 110.914063 63.824219 L 110.914063 55.320313 C 110.914063 54.898438 111.117188 54.546875 111.523438 54.257813 C 111.933594 53.964844 112.429688 53.816406 113.019531 53.816406 L 121.0625 53.816406 C 121.652344 53.816406 122.148438 53.964844 122.550781 54.257813 C 122.960938 54.546875 123.164063 54.898438 123.164063 55.320313 L 123.164063 63.824219 "/>
</g>
<g clip-path="url(#clip10)" clip-rule="nonzero">
<path style=" stroke:none;fill-rule:nonzero;fill:rgb(13.299561%,12.199402%,12.199402%);fill-opacity:1;" d="M 138.226563 63.824219 L 130.183594 56.535156 L 130.183594 63.824219 L 128.078125 63.824219 L 128.078125 53.816406 L 130.183594 53.816406 L 138.226563 61.089844 L 138.226563 53.816406 L 140.328125 53.816406 L 140.328125 63.824219 "/>
</g>
<g clip-path="url(#clip11)" clip-rule="nonzero">
<path style=" stroke:none;fill-rule:nonzero;fill:rgb(13.299561%,12.199402%,12.199402%);fill-opacity:1;" d="M 197.425781 53.816406 L 189.773438 62.503906 L 182.117188 53.816406 L 180.421875 53.816406 L 180.421875 63.824219 L 182.117188 63.824219 L 182.117188 56.535156 L 188.609375 63.824219 L 190.933594 63.824219 L 197.425781 56.535156 L 197.425781 63.824219 L 199.121094 63.824219 L 199.121094 53.816406 "/>
</g>
<g clip-path="url(#clip12)" clip-rule="nonzero">
<path style=" stroke:none;fill-rule:nonzero;fill:rgb(13.299561%,12.199402%,12.199402%);fill-opacity:1;" d="M 260.835938 53.816406 L 253.183594 62.503906 L 245.527344 53.816406 L 243.832031 53.816406 L 243.832031 63.824219 L 245.527344 63.824219 L 245.527344 56.535156 L 252.019531 63.824219 L 254.34375 63.824219 L 260.835938 56.535156 L 260.835938 63.824219 L 262.53125 63.824219 L 262.53125 53.816406 "/>
</g>
<g clip-path="url(#clip13)" clip-rule="nonzero">
<path style=" stroke:none;fill-rule:nonzero;fill:rgb(13.299561%,12.199402%,12.199402%);fill-opacity:1;" d="M 147.941406 63.824219 C 147.359375 63.824219 146.859375 63.679688 146.441406 63.390625 C 146.039063 63.09375 145.839844 62.734375 145.839844 62.320313 L 145.839844 55.320313 C 145.839844 54.898438 146.039063 54.542969 146.441406 54.257813 C 146.855469 53.964844 147.351563 53.816406 147.941406 53.816406 L 158.089844 53.816406 L 158.089844 55.320313 L 148.300781 55.320313 C 148.0625 55.320313 147.941406 55.402344 147.941406 55.574219 L 147.941406 62.066406 C 147.941406 62.234375 148.0625 62.320313 148.300781 62.320313 L 158.089844 62.320313 L 158.089844 63.824219 "/>
</g>
<g clip-path="url(#clip14)" clip-rule="nonzero">
<path style=" stroke:none;fill-rule:nonzero;fill:rgb(13.299561%,12.199402%,12.199402%);fill-opacity:1;" d="M 173.300781 55.574219 C 173.300781 55.402344 173.1875 55.320313 172.960938 55.320313 L 165.617188 55.320313 C 165.375 55.320313 165.257813 55.402344 165.257813 55.574219 L 165.257813 62.066406 C 165.257813 62.234375 165.375 62.320313 165.617188 62.320313 L 172.960938 62.320313 C 173.1875 62.320313 173.300781 62.234375 173.300781 62.066406 Z M 174.789063 63.390625 C 174.382813 63.679688 173.886719 63.824219 173.300781 63.824219 L 165.257813 63.824219 C 164.675781 63.824219 164.175781 63.679688 163.757813 63.390625 C 163.355469 63.09375 163.152344 62.734375 163.152344 62.320313 L 163.152344 55.320313 C 163.152344 54.898438 163.355469 54.546875 163.757813 54.257813 C 164.167969 53.964844 164.667969 53.816406 165.257813 53.816406 L 173.300781 53.816406 C 173.886719 53.816406 174.382813 53.964844 174.789063 54.257813 C 175.199219 54.546875 175.402344 54.898438 175.402344 55.320313 L 175.402344 62.320313 C 175.402344 62.742188 175.199219 63.097656 174.789063 63.390625 "/>
</g>
<g clip-path="url(#clip15)" clip-rule="nonzero">
<path style=" stroke:none;fill-rule:nonzero;fill:rgb(13.299561%,12.199402%,12.199402%);fill-opacity:1;" d="M 203.160156 63.824219 L 205.265625 63.824219 L 205.265625 62.320313 L 203.160156 62.320313 Z M 203.160156 63.824219 "/>
</g>
<g clip-path="url(#clip16)" clip-rule="nonzero">
<path style=" stroke:none;fill-rule:nonzero;fill:rgb(13.299561%,12.199402%,12.199402%);fill-opacity:1;" d="M 211.449219 63.824219 C 210.867188 63.824219 210.367188 63.679688 209.949219 63.390625 C 209.546875 63.09375 209.34375 62.734375 209.34375 62.320313 L 209.34375 55.320313 C 209.34375 54.898438 209.546875 54.542969 209.949219 54.257813 C 210.359375 53.964844 210.859375 53.816406 211.449219 53.816406 L 221.59375 53.816406 L 221.59375 55.320313 L 211.808594 55.320313 C 211.566406 55.320313 211.449219 55.402344 211.449219 55.574219 L 211.449219 62.066406 C 211.449219 62.234375 211.566406 62.320313 211.808594 62.320313 L 221.59375 62.320313 L 221.59375 63.824219 "/>
</g>
<g clip-path="url(#clip17)" clip-rule="nonzero">
<path style=" stroke:none;fill-rule:nonzero;fill:rgb(13.299561%,12.199402%,12.199402%);fill-opacity:1;" d="M 237.113281 55.582031 C 237.113281 55.410156 237 55.328125 236.773438 55.328125 L 229.429688 55.328125 C 229.191406 55.328125 229.070313 55.410156 229.070313 55.582031 L 229.070313 62.074219 C 229.070313 62.242188 229.191406 62.328125 229.429688 62.328125 L 236.773438 62.328125 C 237 62.328125 237.113281 62.242188 237.113281 62.074219 Z M 238.601563 63.398438 C 238.199219 63.6875 237.703125 63.832031 237.113281 63.832031 L 229.070313 63.832031 C 228.488281 63.832031 227.988281 63.6875 227.574219 63.398438 C 227.167969 63.101563 226.96875 62.742188 226.96875 62.328125 L 226.96875 55.328125 C 226.96875 54.90625 227.167969 54.550781 227.574219 54.265625 C 227.984375 53.972656 228.480469 53.824219 229.070313 53.824219 L 237.113281 53.824219 C 237.703125 53.824219 238.199219 53.972656 238.601563 54.265625 C 239.011719 54.550781 239.21875 54.90625 239.21875 55.328125 L 239.21875 62.328125 C 239.21875 62.75 239.011719 63.105469 238.601563 63.398438 "/>
</g>
</g>
</svg>
