<?xml version="1.0" encoding="UTF-8"?>
<svg xmlns="http://www.w3.org/2000/svg" xmlns:xlink="http://www.w3.org/1999/xlink" width="268.74pt" height="99.01pt" viewBox="0 0 268.74 99.01" version="1.1">
<defs>
<clipPath id="clip1">
  <path d="M 206 0 L 268.738281 0 L 268.738281 61 L 206 61 Z M 206 0 "/>
</clipPath>
<clipPath id="clip2">
  <path d="M 108 82 L 122 82 L 122 99.011719 L 108 99.011719 Z M 108 82 "/>
</clipPath>
</defs>
<g id="surface1">
<path style=" stroke:none;fill-rule:nonzero;fill:rgb(97.65625%,14.109802%,37.646484%);fill-opacity:1;" d="M 174.667969 16.117188 C 174.9375 15.582031 175.0625 14.964844 175.386719 13.878906 C 175.65625 12.984375 174.941406 12.265625 173.949219 12.265625 L 147.058594 12.265625 C 148.910156 6.113281 150.15625 1.925781 150.203125 1.703125 C 150.382813 0.808594 149.574219 0 148.628906 0 L 138.015625 0 C 137.339844 0 136.710938 0.628906 136.351563 1.703125 C 136.261719 1.972656 134.988281 6.15625 133.132813 12.265625 L 106.039063 12.265625 C 105.410156 12.265625 104.6875 12.449219 104.507813 13.074219 C 104.28125 13.867188 104.058594 14.953125 103.96875 15.757813 C 103.878906 16.566406 104.6875 17.011719 105.410156 17.011719 L 113.046875 17.011719 C 109.140625 23.582031 88.59375 58.136719 87.777344 59.269531 C 86.878906 60.523438 87.417969 62.132813 88.859375 62.132813 L 97.3125 62.132813 C 98.390625 62.132813 98.933594 61.417969 99.652344 60.339844 C 100.316406 59.351563 123.082031 22.613281 126.554688 17.011719 L 131.691406 17.011719 C 128.320313 28.105469 123.832031 42.917969 120.671875 53.359375 L 114.402344 53.359375 C 113.683594 53.359375 113.144531 53.539063 112.785156 54.433594 C 112.425781 55.328125 112.242188 55.867188 111.882813 57.121094 C 111.523438 58.375 112.0625 58.910156 112.964844 58.910156 L 118.992188 58.910156 C 117.722656 63.101563 116.902344 65.820313 116.832031 66.074219 C 116.472656 67.328125 117.011719 68.699219 117.867188 68.699219 L 128.566406 68.699219 C 129.691406 68.699219 130.144531 67.777344 130.414063 67.148438 C 130.472656 67.007813 131.453125 63.816406 132.945313 58.910156 L 137.609375 58.910156 C 139.046875 58.910156 139.589844 58.554688 139.769531 57.835938 C 139.945313 57.121094 140.128906 56.402344 140.488281 55.152344 C 140.835938 53.933594 139.769531 53.359375 138.6875 53.359375 L 134.632813 53.359375 C 137.863281 42.71875 142.3125 28.015625 145.628906 17.011719 L 151.824219 17.011719 C 151.851563 23.117188 152 58.660156 152 59.804688 C 152 61.058594 152.722656 61.417969 153.621094 61.417969 L 163.875 61.417969 C 164.773438 61.417969 165.765625 60.878906 165.765625 59.535156 L 165.765625 17.011719 L 172.960938 17.011719 C 173.679688 17.011719 174.398438 16.652344 174.667969 16.117188 "/>
<path style=" stroke:none;fill-rule:nonzero;fill:rgb(97.65625%,14.109802%,37.646484%);fill-opacity:1;" d="M 79.324219 25.875 L 4.039063 25.875 C 3.050781 25.875 2.417969 26.410156 2.238281 27.394531 C 2.0625 28.378906 0.441406 33.484375 0.0820313 35.097656 C -0.277344 36.707031 0.621094 37.425781 1.429688 37.425781 L 76.175781 37.425781 C 77.347656 37.425781 77.886719 37.246094 78.425781 35.992188 C 78.964844 34.738281 80.3125 30.171875 80.761719 28.113281 C 81.214844 26.054688 79.324219 25.875 79.324219 25.875 "/>
<g clip-path="url(#clip1)" clip-rule="nonzero">
<path style=" stroke:none;fill-rule:nonzero;fill:rgb(97.65625%,14.109802%,37.646484%);fill-opacity:1;" d="M 245.699219 25.460938 C 246.328125 25.460938 247.230469 26.695313 247.050781 27.503906 C 246.871094 28.308594 245.917969 30.988281 245.609375 31.765625 C 245.304688 32.539063 244.53125 32.53125 243.722656 32.53125 L 228.609375 32.53125 C 227.59375 32.53125 226.785156 32.621094 227.023438 31.738281 C 227.261719 30.859375 228.429688 27.128906 228.429688 27.128906 C 228.699219 26.324219 229.0625 25.460938 229.960938 25.460938 Z M 243.578125 38.851563 C 243.273438 39.964844 242.496094 42.921875 242.105469 43.867188 C 241.710938 44.8125 240.753906 45.261719 240.035156 45.261719 L 224.65625 45.261719 C 223.957031 45.261719 223.402344 44.730469 223.664063 43.671875 C 223.929688 42.613281 224.96875 39.109375 225.105469 38.566406 C 225.375 37.496094 226.285156 36.777344 226.8125 36.777344 L 242.015625 36.777344 C 243.453125 36.777344 243.882813 37.734375 243.578125 38.851563 M 240.148438 49.605469 C 239.855469 50.503906 239.132813 52.964844 238.777344 53.773438 C 238.417969 54.574219 237.96875 55.164063 236.976563 55.164063 L 222.226563 55.164063 C 221.144531 55.164063 220.359375 54.535156 220.605469 53.542969 C 220.875 52.46875 221.316406 50.714844 221.503906 49.832031 C 221.691406 48.945313 222.402344 48.089844 223.214844 48.089844 L 238.6875 48.089844 C 239.5625 48.089844 240.445313 48.710938 240.148438 49.605469 M 268.636719 0.808594 C 268.277344 0.00390625 267.648438 0.00390625 266.972656 0.00390625 L 255.730469 0.00390625 C 254.871094 0.00390625 254.425781 0.171875 253.796875 0.710938 C 253.238281 1.183594 239.152344 12.730469 235.984375 15.558594 L 217.367188 15.558594 C 216.828125 15.558594 216.46875 16.019531 216.109375 16.644531 C 215.746094 17.273438 215.570313 17.820313 215.390625 18.628906 C 215.210938 19.433594 215.746094 19.804688 216.648438 19.804688 L 229.242188 19.804688 L 227.742188 21.21875 L 218.808594 21.21875 C 217.820313 21.21875 217.1875 22.339844 216.917969 23.324219 C 216.652344 24.308594 206.847656 56.554688 206.484375 57.984375 C 206.125 59.417969 206.574219 60.820313 207.566406 60.820313 L 216.828125 60.820313 C 218.898438 60.820313 218.808594 59.40625 218.808594 59.40625 L 237.878906 59.40625 C 237.609375 59.40625 238.148438 60.820313 239.136719 60.820313 L 248.492188 60.820313 C 250.378906 60.820313 250.378906 60.605469 250.742188 59.351563 C 251.101563 58.097656 260.453125 24.839844 260.726563 23.769531 C 260.992188 22.695313 260.277344 21.21875 259.285156 21.21875 L 243.464844 21.21875 L 244.742188 19.804688 L 264.050781 19.804688 C 265.222656 19.804688 265.578125 19.527344 265.847656 18.992188 C 266.117188 18.453125 266.390625 17.636719 266.480469 17.007813 C 266.570313 16.382813 266.121094 15.5625 265.132813 15.5625 L 252.347656 15.5625 C 255.238281 12.734375 267.324219 2.914063 267.917969 2.324219 C 268.636719 1.605469 268.894531 1.386719 268.636719 0.808594 "/>
</g>
<path style=" stroke:none;fill-rule:nonzero;fill:rgb(97.65625%,14.109802%,37.646484%);fill-opacity:1;" d="M 253.167969 65.0625 L 206.214844 65.0625 C 204.414063 65.0625 204.144531 64.40625 203.605469 63.777344 C 203.191406 63.296875 200.097656 59.5 198.703125 57.816406 C 199.339844 57.316406 199.804688 56.90625 200.007813 56.703125 C 201.355469 55.359375 202.078125 53.644531 202.617188 51.941406 C 203.160156 50.242188 210.621094 24.492188 210.894531 23.507813 C 211.164063 22.523438 210.355469 21.214844 209.363281 21.214844 L 193.085938 21.214844 C 192.453125 21.214844 191.464844 22.042969 191.464844 23.113281 C 191.464844 24.1875 192.09375 25.460938 192.902344 25.460938 L 197.492188 25.460938 C 197.492188 25.460938 191.824219 46.347656 191.105469 49.300781 C 190.386719 52.253906 188.589844 53.878906 187.6875 54.6875 C 186.785156 55.492188 174.195313 64.5 173.023438 65.394531 C 171.855469 66.289063 172.304688 67.890625 173.566406 67.890625 L 182.828125 67.890625 C 184.089844 67.890625 184.449219 67.996094 185.347656 67.28125 C 185.890625 66.847656 190.632813 63.613281 194.597656 60.664063 C 195.847656 62.460938 198.605469 66.113281 199.019531 66.730469 C 199.5625 67.539063 200.28125 67.890625 201.40625 67.890625 L 252.628906 67.890625 C 253.980469 67.890625 253.980469 67.671875 254.339844 66.507813 C 254.714844 65.285156 254.246094 65.0625 253.167969 65.0625 "/>
<path style=" stroke:none;fill-rule:nonzero;fill:rgb(97.65625%,14.109802%,37.646484%);fill-opacity:1;" d="M 198.75 14.183594 C 198.839844 14.988281 199.46875 15.5625 200.460938 15.5625 L 210.621094 15.5625 C 212.0625 15.5625 212.242188 14.453125 212.152344 13.644531 C 212.0625 12.839844 210.984375 5.015625 210.894531 4.210938 C 210.800781 3.402344 209.992188 2.832031 209.273438 2.832031 L 198.390625 2.832031 C 197.21875 2.832031 196.859375 4.03125 197.039063 5.015625 C 197.222656 6 198.660156 13.378906 198.75 14.183594 "/>
<path style=" stroke:none;fill-rule:nonzero;fill:rgb(97.65625%,14.109802%,37.646484%);fill-opacity:1;" d="M 225.371094 11.515625 C 225.554688 12.5 226.09375 12.730469 226.902344 12.730469 L 237.335938 12.730469 C 238.417969 12.730469 238.957031 11.964844 238.863281 11.15625 C 238.777344 10.351563 237.605469 1.863281 237.425781 1.144531 C 237.246094 0.433594 236.886719 0.00390625 236.121094 0.00390625 L 224.96875 0.00390625 C 223.84375 0.00390625 223.46875 1.433594 223.664063 2.3125 C 223.84375 3.117188 225.195313 10.527344 225.371094 11.515625 "/>
<path style=" stroke:none;fill-rule:nonzero;fill:rgb(97.65625%,14.109802%,37.646484%);fill-opacity:1;" d="M 18.867188 91.121094 L 21.484375 82.363281 L 24.410156 82.363281 L 20.226563 95.234375 L 17.613281 95.234375 L 14.757813 86.5 L 11.875 95.234375 L 9.265625 95.234375 L 5.125 82.363281 L 8.125 82.363281 L 10.691406 91.121094 L 13.523438 82.316406 L 16.011719 82.316406 "/>
<path style=" stroke:none;fill-rule:nonzero;fill:rgb(97.65625%,14.109802%,37.646484%);fill-opacity:1;" d="M 44.878906 91.121094 L 47.492188 82.363281 L 50.421875 82.363281 L 46.234375 95.234375 L 43.621094 95.234375 L 40.765625 86.5 L 37.886719 95.234375 L 35.273438 95.234375 L 31.136719 82.363281 L 34.136719 82.363281 L 36.703125 91.121094 L 39.53125 82.316406 L 42.023438 82.316406 "/>
<path style=" stroke:none;fill-rule:nonzero;fill:rgb(97.65625%,14.109802%,37.646484%);fill-opacity:1;" d="M 70.890625 91.121094 L 73.503906 82.363281 L 76.429688 82.363281 L 72.246094 95.234375 L 69.632813 95.234375 L 66.777344 86.5 L 63.898438 95.234375 L 61.285156 95.234375 L 57.148438 82.363281 L 60.148438 82.363281 L 62.714844 91.121094 L 65.542969 82.316406 L 68.035156 82.316406 "/>
<path style=" stroke:none;fill-rule:nonzero;fill:rgb(97.65625%,14.109802%,37.646484%);fill-opacity:1;" d="M 82.804688 95.140625 L 86.023438 95.140625 L 86.023438 91.824219 L 82.804688 91.824219 Z M 82.804688 95.140625 "/>
<path style=" stroke:none;fill-rule:nonzero;fill:rgb(97.65625%,14.109802%,37.646484%);fill-opacity:1;" d="M 97.042969 78.082031 L 99.125 78.082031 L 99.125 95.140625 L 96.171875 95.140625 L 96.171875 81.105469 L 93.125 81.953125 L 92.496094 79.535156 "/>
<g clip-path="url(#clip2)" clip-rule="nonzero">
<path style=" stroke:none;fill-rule:nonzero;fill:rgb(97.65625%,14.109802%,37.646484%);fill-opacity:1;" d="M 114.722656 84.636719 C 112.738281 84.636719 110.996094 86.257813 110.996094 88.75 C 110.996094 91.242188 112.738281 92.863281 114.722656 92.863281 C 116.730469 92.863281 118.375 91.289063 118.375 88.75 C 118.375 86.234375 116.707031 84.636719 114.722656 84.636719 M 115.398438 95.402344 C 113.296875 95.402344 111.964844 94.339844 111.070313 93.152344 L 111.070313 99.011719 L 108.144531 99.011719 L 108.144531 82.363281 L 111.070313 82.363281 L 111.070313 84.492188 C 112.011719 83.160156 113.34375 82.097656 115.398438 82.097656 C 118.425781 82.097656 121.351563 84.492188 121.351563 88.75 C 121.351563 93.011719 118.449219 95.402344 115.398438 95.402344 "/>
</g>
<path style=" stroke:none;fill-rule:nonzero;fill:rgb(97.65625%,14.109802%,37.646484%);fill-opacity:1;" d="M 135.277344 84.660156 C 132.929688 84.660156 131.429688 86.5 131.429688 88.75 C 131.429688 91.023438 133.046875 92.886719 135.324219 92.886719 C 137.695313 92.886719 139.195313 91.046875 139.195313 88.796875 C 139.195313 86.523438 137.574219 84.660156 135.277344 84.660156 M 135.277344 95.425781 C 131.382813 95.425781 128.5 92.453125 128.5 88.796875 C 128.5 85.121094 131.40625 82.097656 135.324219 82.097656 C 139.242188 82.097656 142.121094 85.070313 142.121094 88.75 C 142.121094 92.40625 139.21875 95.425781 135.277344 95.425781 "/>
<path style=" stroke:none;fill-rule:nonzero;fill:rgb(97.65625%,14.109802%,37.646484%);fill-opacity:1;" d="M 152.839844 95.140625 L 149.914063 95.140625 L 149.914063 82.363281 L 152.839844 82.363281 L 152.839844 84.347656 C 153.664063 83.136719 154.847656 82.097656 156.832031 82.097656 C 159.710938 82.097656 161.378906 84.03125 161.378906 87.007813 L 161.378906 95.140625 L 158.453125 95.140625 L 158.453125 87.878906 C 158.453125 85.894531 157.460938 84.757813 155.71875 84.757813 C 154.023438 84.757813 152.839844 85.945313 152.839844 87.929688 L 152.839844 95.140625 "/>
<path style=" stroke:none;fill-rule:nonzero;fill:rgb(97.65625%,14.109802%,37.646484%);fill-opacity:1;" d="M 175.738281 84.636719 C 173.730469 84.636719 172.0625 86.1875 172.0625 88.75 C 172.0625 91.265625 173.757813 92.863281 175.738281 92.863281 C 177.699219 92.863281 179.441406 91.242188 179.441406 88.75 C 179.441406 86.257813 177.699219 84.636719 175.738281 84.636719 M 179.394531 95.140625 L 179.394531 93.007813 C 178.449219 94.339844 177.117188 95.402344 175.035156 95.402344 C 172.035156 95.402344 169.109375 93.007813 169.109375 88.75 C 169.109375 84.496094 171.988281 82.097656 175.035156 82.097656 C 177.140625 82.097656 178.472656 83.160156 179.394531 84.347656 L 179.394531 77.476563 L 182.320313 77.476563 L 182.320313 95.136719 L 179.394531 95.136719 "/>
<path style=" stroke:none;fill-rule:nonzero;fill:rgb(97.65625%,14.109802%,37.646484%);fill-opacity:1;" d="M 196.871094 84.660156 C 194.527344 84.660156 193.027344 86.5 193.027344 88.75 C 193.027344 91.023438 194.648438 92.886719 196.921875 92.886719 C 199.292969 92.886719 200.789063 91.046875 200.789063 88.796875 C 200.789063 86.523438 199.171875 84.660156 196.871094 84.660156 M 196.871094 95.425781 C 192.976563 95.425781 190.097656 92.453125 190.097656 88.796875 C 190.097656 85.121094 193 82.097656 196.921875 82.097656 C 200.84375 82.097656 203.71875 85.070313 203.71875 88.75 C 203.71875 92.40625 200.816406 95.425781 196.871094 95.425781 "/>
<path style=" stroke:none;fill-rule:nonzero;fill:rgb(97.65625%,14.109802%,37.646484%);fill-opacity:1;" d="M 211.171875 95.140625 L 214.390625 95.140625 L 214.390625 91.824219 L 211.171875 91.824219 Z M 211.171875 95.140625 "/>
<path style=" stroke:none;fill-rule:nonzero;fill:rgb(97.65625%,14.109802%,37.646484%);fill-opacity:1;" d="M 226 91.144531 C 226 92.285156 226.582031 92.742188 227.574219 92.742188 C 228.226563 92.742188 228.808594 92.597656 229.386719 92.308594 L 229.386719 94.703125 C 228.660156 95.113281 227.839844 95.355469 226.75 95.355469 C 224.597656 95.355469 223.070313 94.410156 223.070313 91.605469 L 223.070313 84.878906 L 221.449219 84.878906 L 221.449219 82.363281 L 223.070313 82.363281 L 223.070313 78.855469 L 226 78.855469 L 226 82.363281 L 229.433594 82.363281 L 229.433594 84.878906 L 226 84.878906 L 226 91.144531 "/>
<path style=" stroke:none;fill-rule:nonzero;fill:rgb(97.65625%,14.109802%,37.646484%);fill-opacity:1;" d="M 246.261719 82.363281 L 249.335938 82.363281 L 244.109375 95.234375 L 241.472656 95.234375 L 236.222656 82.363281 L 239.367188 82.363281 L 242.804688 91.75 "/>
</g>
</svg>
