<svg id="Layer_1" data-name="Layer 1" xmlns="http://www.w3.org/2000/svg" viewBox="0 0 1161 513"><defs><style>.cls-1{fill:#2a3186;}.cls-2{fill:#f8e32c;}</style></defs><path class="cls-1" d="M0,459C273.2,264.7,859.7,164.2,1161,234c-254.6,3.4-643.7,66.8-945,279C221.7,406.6,69.5,441.1,0,459Z"/><path class="cls-1" d="M1098,36c-62.2,81.4-102.6,45.3-153,90-11.7,10.6-14.5,57.7-18,72C976.5,107.8,1054.6,183.4,1098,36Z"/><path class="cls-1" d="M1089,0c.9,22-18.5,55.3-45,63-26.2,10.4-37.4-1.3-63,9-29.6,11.2-49.8,44.4-54,63-8.2-21.2-9.9-76,36-90C1018.8,26.6,1046.7,59.7,1089,0Z"/><path class="cls-2" d="M729,126c17-9.3,45.2-14.4,72,0V333h27V126c17-9.3,45.2-14.4,72,0V378c-64.2,12.6-107,12.6-171,0Z"/><path class="cls-2" d="M576,9V117h99a31.8,31.8,0,0,1,27,27V378c-17,9.3-45.2,14.4-72,0V189H576V378c-17,9.3-45.2,14.4-72,0V189H450V333h45c-5.2,62.8-92.2,76.2-117,18V189H324c-9.3-17-14.4-45.2,0-72h54V9c17.6-11.6,54.9-11.4,72,0V117h54V9C521.6-2.6,558.9-2.3,576,9Z"/></svg>